<svg 
    width="16"
    height="14" 
    viewBox="0 0 16 14" 
    fill="none" 
    xmlns="http://www.w3.org/2000/svg"
>
    <path d="M15.6134 7.93457C15.861 7.68671 16 7.35073 16 7.00043C16 6.65012 15.861 6.31414 15.6134 6.06628L10.629 1.07919C10.381 0.83121 10.0446 0.691894 9.69394 0.691894C9.34323 0.691894 9.0069 0.83121 8.75891 1.07919C8.51093 1.32718 8.37161 1.66352 8.37161 2.01422C8.37161 2.36492 8.51093 2.70126 8.75891 2.94924L11.4873 5.67853L1.3219 5.67853C0.971309 5.67853 0.63508 5.8178 0.387175 6.0657C0.139271 6.31361 -2.6043e-07 6.64984 -2.75755e-07 7.00043C-2.91079e-07 7.35102 0.139271 7.68725 0.387175 7.93515C0.63508 8.18306 0.971309 8.32233 1.3219 8.32233L11.4873 8.32233L8.75891 11.0507C8.63612 11.1735 8.53872 11.3193 8.47227 11.4797C8.40581 11.6402 8.37161 11.8121 8.37161 11.9858C8.37161 12.1594 8.40581 12.3314 8.47227 12.4918C8.53872 12.6522 8.63612 12.798 8.75891 12.9208C8.8817 13.0436 9.02747 13.141 9.1879 13.2074C9.34834 13.2739 9.52029 13.3081 9.69393 13.3081C9.86759 13.3081 10.0395 13.2739 10.2 13.2074C10.3604 13.141 10.5062 13.0436 10.629 12.9208L15.6134 7.93457Z" 
        fill="#3D7EFF"
    />
</svg>
