<?xml version="1.0" encoding="UTF-8"?>
<svg xmlns="http://www.w3.org/2000/svg" version="1.1" viewBox="0 0 9 48">
  <defs>
    <style>
      .cls-1 {
        fill: #e6bf99;
      }
    </style>
  </defs>
  <g>
    <path class="cls-1" d="M6.4,12.4c1.1,0,2-.9,2-2s-.9-2-2-2-2,.9-2,2,.9,2,2,2Z"/>
    <path class="cls-1" d="M2,17.2c1.1,0,2-.9,2-2s-.9-2-2-2-2,.9-2,2,.9,2,2,2Z"/>
    <path class="cls-1" d="M6.4,20.7c1.1,0,2-.9,2-2s-.9-2-2-2-2,.9-2,2,.9,2,2,2Z"/>
    <path class="cls-1" d="M2,25.4c1.1,0,2-.9,2-2s-.9-2-2-2-2,.9-2,2,.9,2,2,2Z"/>
    <path class="cls-1" d="M6.4,28.9c1.1,0,2-.9,2-2s-.9-2-2-2-2,.9-2,2,.9,2,2,2Z"/>
    <path class="cls-1" d="M2,33.7c1.1,0,2-.9,2-2s-.9-2-2-2-2,.9-2,2,.9,2,2,2Z"/>
    <path class="cls-1" d="M6.4,37.1c1.1,0,2-.9,2-2s-.9-2-2-2-2,.9-2,2,.9,2,2,2Z"/>
  </g>
</svg>