<svg width="55" height="48" viewBox="0 0 55 48" fill="none" xmlns="http://www.w3.org/2000/svg">
<g clip-path="url(#clip0_266_69)">
<rect width="54.2222" height="48" fill="none"/>
<path d="M16.2784 6.08972C16.2784 4.77083 15.2297 3.70166 13.9362 3.70166C12.6426 3.70166 11.5939 4.77083 11.5939 6.08972V43.1046C11.5939 44.4235 12.6426 45.4927 13.9362 45.4927C15.2297 45.4927 16.2784 44.4235 16.2784 43.1046V6.08972Z" fill="#E6BF99"/>
<path d="M25.5301 2.38806C25.5301 1.06917 24.4815 0 23.1879 0C21.8943 0 20.8457 1.06917 20.8457 2.38806V39.403C20.8457 40.7219 21.8943 41.791 23.1879 41.791C24.4815 41.791 25.5301 40.7219 25.5301 39.403V2.38806Z" fill="#E6BF99"/>
<path d="M34.0792 8.59704C34.0792 7.27816 33.0306 6.20898 31.737 6.20898C30.4434 6.20898 29.3948 7.27816 29.3948 8.59704V45.612C29.3948 46.9309 30.4434 48 31.737 48C33.0306 48 34.0792 46.9309 34.0792 45.612V8.59704Z" fill="#E6BF99"/>
<path d="M43.2138 2.74646C43.2138 1.42757 42.1652 0.358398 40.8716 0.358398C39.578 0.358398 38.5294 1.42757 38.5294 2.74646V39.7614C38.5294 41.0803 39.578 42.1494 40.8716 42.1494C42.1652 42.1494 43.2138 41.0803 43.2138 39.7614V2.74646Z" fill="#E6BF99"/>
<path d="M6.44109 14.3283C7.54062 14.3283 8.43197 13.4195 8.43197 12.2984C8.43197 11.1773 7.54062 10.2686 6.44109 10.2686C5.34156 10.2686 4.45021 11.1773 4.45021 12.2984C4.45021 13.4195 5.34156 14.3283 6.44109 14.3283Z" fill="#E6BF99"/>
<path d="M1.99088 19.1046C3.09041 19.1046 3.98176 18.1958 3.98176 17.0748C3.98176 15.9537 3.09041 15.0449 1.99088 15.0449C0.891348 15.0449 0 15.9537 0 17.0748C0 18.1958 0.891348 19.1046 1.99088 19.1046Z" fill="#E6BF99"/>
<path d="M6.44109 22.567C7.54062 22.567 8.43197 21.6582 8.43197 20.5372C8.43197 19.4161 7.54062 18.5073 6.44109 18.5073C5.34156 18.5073 4.45021 19.4161 4.45021 20.5372C4.45021 21.6582 5.34156 22.567 6.44109 22.567Z" fill="#E6BF99"/>
<path d="M1.99088 27.3434C3.09041 27.3434 3.98176 26.4346 3.98176 25.3135C3.98176 24.1925 3.09041 23.2837 1.99088 23.2837C0.891348 23.2837 0 24.1925 0 25.3135C0 26.4346 0.891348 27.3434 1.99088 27.3434Z" fill="#E6BF99"/>
<path d="M6.44109 30.8058C7.54062 30.8058 8.43197 29.897 8.43197 28.7759C8.43197 27.6549 7.54062 26.7461 6.44109 26.7461C5.34156 26.7461 4.45021 27.6549 4.45021 28.7759C4.45021 29.897 5.34156 30.8058 6.44109 30.8058Z" fill="#E6BF99"/>
<path d="M1.99088 35.5822C3.09041 35.5822 3.98176 34.6734 3.98176 33.5523C3.98176 32.4313 3.09041 31.5225 1.99088 31.5225C0.891348 31.5225 0 32.4313 0 33.5523C0 34.6734 0.891348 35.5822 1.99088 35.5822Z" fill="#E6BF99"/>
<path d="M6.44109 39.0446C7.54062 39.0446 8.43197 38.1358 8.43197 37.0147C8.43197 35.8937 7.54062 34.9849 6.44109 34.9849C5.34156 34.9849 4.45021 35.8937 4.45021 37.0147C4.45021 38.1358 5.34156 39.0446 6.44109 39.0446Z" fill="#E6BF99"/>
<path d="M47.7811 33.5524C48.8807 33.5524 49.772 32.6436 49.772 31.5225C49.772 30.4015 48.8807 29.4927 47.7811 29.4927C46.6816 29.4927 45.7903 30.4015 45.7903 31.5225C45.7903 32.6436 46.6816 33.5524 47.7811 33.5524Z" fill="#E6BF99"/>
<path d="M52.2314 28.776C53.3309 28.776 54.2222 27.8672 54.2222 26.7462C54.2222 25.6251 53.3309 24.7163 52.2314 24.7163C51.1318 24.7163 50.2405 25.6251 50.2405 26.7462C50.2405 27.8672 51.1318 28.776 52.2314 28.776Z" fill="#E6BF99"/>
<path d="M47.7811 25.3136C48.8807 25.3136 49.772 24.4048 49.772 23.2838C49.772 22.1627 48.8807 21.2539 47.7811 21.2539C46.6816 21.2539 45.7903 22.1627 45.7903 23.2838C45.7903 24.4048 46.6816 25.3136 47.7811 25.3136Z" fill="#E6BF99"/>
<path d="M52.2314 20.5372C53.3309 20.5372 54.2222 19.6284 54.2222 18.5074C54.2222 17.3863 53.3309 16.4775 52.2314 16.4775C51.1318 16.4775 50.2405 17.3863 50.2405 18.5074C50.2405 19.6284 51.1318 20.5372 52.2314 20.5372Z" fill="#E6BF99"/>
<path d="M47.7811 17.0748C48.8807 17.0748 49.772 16.166 49.772 15.045C49.772 13.9239 48.8807 13.0151 47.7811 13.0151C46.6816 13.0151 45.7903 13.9239 45.7903 15.045C45.7903 16.166 46.6816 17.0748 47.7811 17.0748Z" fill="#E6BF99"/>
<path d="M52.2314 12.2985C53.3309 12.2985 54.2222 11.3897 54.2222 10.2686C54.2222 9.14756 53.3309 8.23877 52.2314 8.23877C51.1318 8.23877 50.2405 9.14756 50.2405 10.2686C50.2405 11.3897 51.1318 12.2985 52.2314 12.2985Z" fill="#E6BF99"/>
<path d="M47.7811 8.83558C48.8807 8.83558 49.772 7.92679 49.772 6.80573C49.772 5.68467 48.8807 4.77588 47.7811 4.77588C46.6816 4.77588 45.7903 5.68467 45.7903 6.80573C45.7903 7.92679 46.6816 8.83558 47.7811 8.83558Z" fill="#E6BF99"/>
</g>
<defs>
<clipPath id="clip0_266_69">
<rect width="54.2222" height="48" fill="white"/>
</clipPath>
</defs>
</svg>
