<?xml version="1.0" encoding="UTF-8"?>
<svg xmlns="http://www.w3.org/2000/svg" version="1.1" viewBox="0 0 24 24">
  <defs>
    <style>
      .cls-1, .cls-2 {
        fill: none;
        stroke: #787878;
        stroke-miterlimit: 10;
      }
      .cls-2 {
        stroke-linecap: round;
      }
    </style>
  </defs>
      <path class="cls-1" d="M-4.99,23.5c-.32,0-.64-.03-.96-.1-1.76-.36-3.19-1.85-3.49-3.63-.07-.46-.08-.9-.02-1.31l.04-.25-8.77-8.77-.24.03c-.18.02-.37.03-.55.03-.99,0-1.95-.33-2.78-.97-.82-.62-1.41-1.54-1.62-2.53-.19-.9-.13-1.81.19-2.62.09-.23.31-.31.47-.31.14,0,.27.05.36.15l1.84,1.84c.26.22.53.33.8.33s.56-.12.78-.31c.45-.46.45-1.14.03-1.6l-1.85-1.85c-.12-.12-.18-.3-.14-.47.02-.08.08-.27.3-.36.51-.2,1.05-.3,1.61-.3.34,0,.68.04,1.02.11.98.21,1.9.8,2.53,1.62.96,1.26,1.04,2.51.93,3.34l-.03.24L-5.8,14.58l.25-.04c.19-.03.38-.04.58-.04.24,0,.49.02.74.06,1.78.29,3.27,1.73,3.63,3.48.18.89.12,1.76-.21,2.58-.09.22-.29.3-.46.3-.14,0-.27-.05-.37-.15l-1.83-1.84c-.26-.22-.53-.33-.8-.33s-.57.12-.78.31c-.45.46-.45,1.14-.03,1.6l1.86,1.85c.12.12.17.3.13.47-.02.09-.09.27-.29.35-.52.2-1.06.3-1.62.3Z"/>
      <circle class="cls-1" cx="9" cy="15" r="3.5"/>
      <circle class="cls-1" cx="17" cy="7" r="3"/>
      <path class="cls-1" d="M22.95,5.72l-.66-.19c-.11-.43-.28-.85-.51-1.23l.33-.6c.12-.36.02-.76-.24-1.03l-.54-.54c-.27-.26-.67-.36-1.03-.24l-.6.33c-.38-.23-.8-.4-1.23-.51l-.19-.66c-.17-.34-.52-.55-.9-.55h-.76c-.38,0-.73.21-.9.55l-.19.66c-.43.11-.85.28-1.23.51l-.6-.33c-.36-.12-.76-.02-1.03.24l-.54.54c-.26.27-.36.67-.24,1.03l.33.6c-.23.38-.4.8-.51,1.23l-.66.19c-.34.17-.55.52-.55.9v.76c0,.38.21.73.55.9l.66.19c.11.43.28.85.51,1.23l-.33.6c-.12.36-.02.76.24,1.03l.54.54c.27.26.67.36,1.03.24l.6-.33c.38.23.8.4,1.23.51l.19.66c.17.34.52.55.9.55h.76c.38,0,.73-.21.9-.55l.19-.66c.43-.11.85-.28,1.23-.51l.6.33c.36.12.76.02,1.03-.24l.54-.54c.26-.27.36-.67.24-1.03l-.33-.6c.23-.38.4-.8.51-1.23l.66-.19c.34-.17.55-.52.55-.9v-.76c0-.38-.21-.73-.55-.9Z"/>
      <path class="cls-2" d="M7.42,7.68l-.23.81c-.53.14-1.05.34-1.51.63l-.74-.41c-.44-.15-.94-.02-1.27.3l-.66.66c-.32.33-.44.82-.3,1.27l.41.74c-.28.47-.49.98-.63,1.51l-.81.23c-.42.21-.68.64-.68,1.11v.94c0,.47.26.9.68,1.11l.81.23c.14.53.34,1.05.63,1.51l-.41.74c-.15.44-.02.94.3,1.27l.66.66c.33.32.82.44,1.27.3l.74-.41c.47.28.98.49,1.51.63l.23.81c.21.42.64.68,1.11.68h.94c.47,0,.9-.26,1.11-.68l.23-.81c.53-.14,1.05-.34,1.51-.63l.74.41c.44.15.94.02,1.27-.3l.66-.66c.32-.33.44-.82.3-1.27l-.41-.74c.28-.47.49-.98.63-1.51l.81-.23"/>
</svg>